<svg width="132" height="66" viewBox="0 0 132 66" fill="none" xmlns="http://www.w3.org/2000/svg">
<circle cx="103" cy="29" r="29" fill="#54BAB9"/>
<path d="M39.228 25.314C38.248 25.314 37.492 25.692 36.96 26.448C36.428 27.176 36.162 27.96 36.162 28.8V49.8C36.162 50.64 36.428 51.438 36.96 52.194C37.492 52.922 38.248 53.286 39.228 53.286V54H29.022V53.286C30.002 53.286 30.758 52.922 31.29 52.194C31.822 51.438 32.088 50.64 32.088 49.8V28.17L20.454 54H18.396L7.308 28.716V49.8C7.308 50.64 7.574 51.438 8.106 52.194C8.638 52.922 9.394 53.286 10.374 53.286V54H2.73V53.286C3.71 53.286 4.466 52.922 4.998 52.194C5.53 51.438 5.796 50.64 5.796 49.8V28.8C5.796 27.96 5.53 27.176 4.998 26.448C4.466 25.692 3.71 25.314 2.73 25.314V24.6H9.912L20.832 49.422L32.004 24.6H39.228V25.314ZM47.5305 29.64C46.7465 29.64 46.0745 29.36 45.5145 28.8C44.9545 28.24 44.6745 27.568 44.6745 26.784C44.6745 26 44.9545 25.342 45.5145 24.81C46.0745 24.25 46.7465 23.97 47.5305 23.97C48.3145 23.97 48.9725 24.25 49.5045 24.81C50.0645 25.342 50.3445 26 50.3445 26.784C50.3445 27.568 50.0645 28.24 49.5045 28.8C48.9725 29.36 48.3145 29.64 47.5305 29.64ZM42.9105 53.286C43.8905 53.286 44.6465 52.922 45.1785 52.194C45.7105 51.438 45.9765 50.64 45.9765 49.8V38.586C45.9765 37.69 45.8365 36.906 45.5565 36.234C45.3045 35.562 44.7025 35.226 43.7505 35.226V34.68L49.4205 32.58H49.9665V49.8C49.9665 50.64 50.2325 51.438 50.7645 52.194C51.2965 52.922 52.0525 53.286 53.0325 53.286V54H42.9105V53.286ZM91.5226 49.8C91.5226 50.64 91.7886 51.438 92.3206 52.194C92.8526 52.922 93.6086 53.286 94.5886 53.286V54H84.4666V53.286C85.4466 53.286 86.2026 52.922 86.7346 52.194C87.2666 51.438 87.5326 50.64 87.5326 49.8V41.61C87.5326 39.146 87.2246 37.34 86.6086 36.192C86.0206 35.016 84.9566 34.428 83.4166 34.428C82.3526 34.428 81.2606 34.736 80.1406 35.352C79.0206 35.968 78.0266 36.808 77.1586 37.872C77.2986 38.684 77.3686 39.846 77.3686 41.358V49.8C77.3686 50.64 77.6346 51.438 78.1666 52.194C78.6986 52.922 79.4546 53.286 80.4346 53.286V54H70.3126V53.286C71.2926 53.286 72.0486 52.922 72.5806 52.194C73.1126 51.438 73.3786 50.64 73.3786 49.8V41.61C73.3786 39.146 73.0706 37.34 72.4546 36.192C71.8666 35.016 70.8026 34.428 69.2626 34.428C68.2546 34.428 67.2046 34.722 66.1126 35.31C65.0206 35.87 64.0546 36.64 63.2146 37.62V49.8C63.2146 50.64 63.4806 51.438 64.0126 52.194C64.5446 52.922 65.3006 53.286 66.2806 53.286V54H56.1586V53.286C57.1386 53.286 57.8946 52.922 58.4266 52.194C58.9586 51.438 59.2246 50.64 59.2246 49.8V38.586C59.2246 37.69 59.0846 36.906 58.8046 36.234C58.5526 35.562 57.9506 35.226 56.9986 35.226V34.68L62.6686 32.58H63.2146V35.814C64.3626 34.834 65.6366 34.05 67.0366 33.462C68.4646 32.874 69.8226 32.58 71.1106 32.58C72.7066 32.58 73.9526 32.874 74.8486 33.462C75.7726 34.022 76.4306 34.96 76.8226 36.276C78.0266 35.156 79.3846 34.26 80.8966 33.588C82.4086 32.916 83.8786 32.58 85.3066 32.58C86.8746 32.58 88.1066 32.86 89.0026 33.42C89.8986 33.98 90.5426 34.89 90.9346 36.15C91.3266 37.41 91.5226 39.146 91.5226 41.358V49.8ZM102.204 29.64C101.42 29.64 100.748 29.36 100.188 28.8C99.6284 28.24 99.3484 27.568 99.3484 26.784C99.3484 26 99.6284 25.342 100.188 24.81C100.748 24.25 101.42 23.97 102.204 23.97C102.988 23.97 103.646 24.25 104.178 24.81C104.738 25.342 105.018 26 105.018 26.784C105.018 27.568 104.738 28.24 104.178 28.8C103.646 29.36 102.988 29.64 102.204 29.64ZM97.5844 53.286C98.5644 53.286 99.3204 52.922 99.8524 52.194C100.384 51.438 100.65 50.64 100.65 49.8V38.586C100.65 37.69 100.51 36.906 100.23 36.234C99.9784 35.562 99.3764 35.226 98.4244 35.226V34.68L104.094 32.58H104.64V49.8C104.64 50.64 104.906 51.438 105.438 52.194C105.97 52.922 106.726 53.286 107.706 53.286V54H97.5844V53.286ZM130.11 35.814C130.11 36.43 129.9 36.948 129.48 37.368C129.088 37.76 128.542 37.956 127.842 37.956C127.086 37.956 126.554 37.816 126.246 37.536C125.938 37.256 125.672 36.836 125.448 36.276C125.252 35.744 125.014 35.338 124.734 35.058C124.454 34.778 123.964 34.638 123.264 34.638C121.808 34.638 120.016 35.66 117.888 37.704V49.8C117.888 50.64 118.154 51.438 118.686 52.194C119.218 52.922 119.974 53.286 120.954 53.286V54H110.832V53.286C111.812 53.286 112.568 52.922 113.1 52.194C113.632 51.438 113.898 50.64 113.898 49.8V38.586C113.898 37.69 113.758 36.906 113.478 36.234C113.226 35.562 112.624 35.226 111.672 35.226V34.68L117.342 32.58H117.888V36.15C120.408 34.078 122.634 32.888 124.566 32.58C125.126 32.524 125.532 32.496 125.784 32.496C126.708 32.496 127.492 32.678 128.136 33.042C128.808 33.378 129.298 33.798 129.606 34.302C129.942 34.806 130.11 35.31 130.11 35.814Z" fill="#2C2C2C"/>
</svg>